<svg width="24" height="24" viewBox="0 0 24 24" fill="none" xmlns="http://www.w3.org/2000/svg">
<path opacity="0.4" d="M19.089 10.4855H13.8871C11.8531 10.4855 10.4851 11.9135 10.4851 14.0374V18.9394C10.4851 21.0574 11.8531 22.4854 13.8871 22.4854H19.089C21.123 22.4854 22.485 21.0574 22.485 18.9394V14.0374C22.485 11.9135 21.123 10.4855 19.089 10.4855Z" fill="#130F26"/>
<path d="M16.4852 15.7676C16.0886 15.7676 15.7664 16.0898 15.7664 16.4852C15.7664 16.8812 16.0886 17.204 16.4852 17.204C16.8817 17.204 17.2039 16.8812 17.2039 16.4852C17.2039 16.0898 16.8817 15.7676 16.4852 15.7676Z" fill="#130F26"/>
<path d="M15.569 7.08388L11.8907 3.40555C10.4524 1.96731 8.47537 2.00974 6.97349 3.51162L3.50729 6.97782C2.00965 8.47546 1.96722 10.4525 3.40547 11.8907L7.0838 15.5691C8.52204 17.0073 10.4948 16.9607 11.9925 15.463L15.4587 11.9968C16.9606 10.4949 17.0072 8.52213 15.569 7.08388Z" fill="#130F26"/>
<path d="M15.569 7.08388L11.8907 3.40555C10.4524 1.96731 8.47537 2.00974 6.97349 3.51162L3.50729 6.97782C2.00965 8.47546 1.96722 10.4525 3.40547 11.8907L7.0838 15.5691C8.52204 17.0073 10.4948 16.9607 11.9925 15.463L15.4587 11.9968C16.9606 10.4949 17.0072 8.52213 15.569 7.08388" stroke="#F4F7FE"/>
<path fill-rule="evenodd" clip-rule="evenodd" d="M9.78951 5.38033C9.50908 5.0999 9.05342 5.0999 8.77384 5.37949C8.49383 5.6595 8.4934 6.11558 8.77384 6.39601C9.05427 6.67645 9.51035 6.67602 9.79036 6.39601C10.07 6.11643 10.07 5.66077 9.78951 5.38033ZM9.99273 8.97763C9.7123 8.6972 9.25664 8.6972 8.97706 8.97679C8.69705 9.2568 8.69662 9.71288 8.97706 9.99331C9.25749 10.2737 9.71357 10.2733 9.99358 9.99331C10.2732 9.71372 10.2732 9.25807 9.99273 8.97763ZM12.5746 9.18022C12.8542 8.90063 13.3098 8.90063 13.5902 9.18106C13.8707 9.4615 13.8707 9.91715 13.5911 10.1967C13.3111 10.4768 12.855 10.4772 12.5746 10.1967C12.2941 9.91631 12.2946 9.46023 12.5746 9.18022ZM6.39543 8.77441C6.115 8.49398 5.65934 8.49398 5.37976 8.77356C5.09974 9.05358 5.09932 9.50965 5.37976 9.79009C5.66019 10.0705 6.11627 10.0701 6.39628 9.79009C6.67587 9.5105 6.67587 9.05485 6.39543 8.77441ZM9.18049 12.5743C9.46007 12.2947 9.91573 12.2947 10.1962 12.5751C10.4766 12.8556 10.4766 13.3112 10.197 13.5908C9.917 13.8708 9.46092 13.8713 9.18049 13.5908C8.90005 13.3104 8.90047 12.8543 9.18049 12.5743Z" fill="#F4F7FE"/>
</svg>
