<svg width="24" height="24" viewBox="0 0 24 24" fill="none" xmlns="http://www.w3.org/2000/svg">
<path opacity="0.4" d="M18.8088 9.021C18.3573 9.021 17.7592 9.011 17.0146 9.011C15.1987 9.011 13.7055 7.508 13.7055 5.675V2.459C13.7055 2.206 13.5036 2 13.253 2H7.96363C5.49517 2 3.5 4.026 3.5 6.509V17.284C3.5 19.889 5.59022 22 8.16958 22H16.0463C18.5058 22 20.5 19.987 20.5 17.502V9.471C20.5 9.217 20.299 9.012 20.0475 9.013C19.6247 9.016 19.1177 9.021 18.8088 9.021Z" fill="black"/>
<path opacity="0.4" d="M16.0839 2.56725C15.7849 2.25625 15.2629 2.47025 15.2629 2.90125V5.53825C15.2629 6.64425 16.1739 7.55425 17.2799 7.55425C17.9769 7.56225 18.9449 7.56425 19.7669 7.56225C20.1879 7.56125 20.4019 7.05825 20.1099 6.75425C19.0549 5.65725 17.1659 3.69125 16.0839 2.56725Z" fill="black"/>
<path fill-rule="evenodd" clip-rule="evenodd" d="M8.97398 11.3876H12.359C12.77 11.3876 13.104 11.0546 13.104 10.6436C13.104 10.2326 12.77 9.89856 12.359 9.89856H8.97398C8.56298 9.89856 8.22998 10.2326 8.22998 10.6436C8.22998 11.0546 8.56298 11.3876 8.97398 11.3876ZM8.97408 16.3818H14.4181C14.8291 16.3818 15.1631 16.0488 15.1631 15.6378C15.1631 15.2268 14.8291 14.8928 14.4181 14.8928H8.97408C8.56308 14.8928 8.23008 15.2268 8.23008 15.6378C8.23008 16.0488 8.56308 16.3818 8.97408 16.3818Z" fill="black"/>
</svg>
